<?xml version="1.0" encoding="UTF-8"?>
<!DOCTYPE svg PUBLIC "-//W3C//DTD SVG 1.1//EN" "http://www.w3.org/Graphics/SVG/1.1/DTD/svg11.dtd">
<!-- Creator: CorelDRAW -->
<svg xmlns="http://www.w3.org/2000/svg" xml:space="preserve" width="132mm" height="205mm" style="shape-rendering:geometricPrecision; text-rendering:geometricPrecision; image-rendering:optimizeQuality; fill-rule:evenodd; clip-rule:evenodd" viewBox="0 0 132 205" xmlns:xlink="http://www.w3.org/1999/xlink">
 <defs>
  <style type="text/css">
   <![CDATA[
    .str0 {stroke:#1F1A17;stroke-width:0.0762}
    .fil0 {fill:#1F1A17}
   ]]>
  </style>
 </defs>
 <g id="Layer_x0020_1">
  <metadata id="CorelCorpID_0Corel-Layer"/>
  <path class="fil0 str0" d="M67.1464 2.5c0,22.6927 1.3522,38.742 4.0564,48.1481 1.646,5.8788 4.9383,11.2875 9.8766,16.2258l0 4.2328c-3.6451,2.8219 -6.5843,6.7901 -8.8184,11.9048 -2.2341,5.1146 -3.3509,11.2579 -3.3509,18.4303l0 37.9189c0,4.8205 0.6467,11.2874 1.94,19.4003 1.2932,8.1129 2.8219,13.4626 4.5855,16.0494 1.7637,2.5868 6.6433,4.7914 14.6385,6.6138 7.9952,1.8223 15.7553,3.5568 23.2804,5.2028 -2.5868,-6.4669 -5.2323,-12.9925 -7.9365,-19.5767 -3.7624,-9.7589 -6.8196,-18.8126 -9.1711,-27.1605 -3.0569,-11.0525 -4.5855,-20.0472 -4.5855,-26.9842 0,-5.9964 1.2346,-11.1697 3.7037,-15.5202 3.0569,-5.4087 7.4074,-8.1129 13.0511,-8.1129 4.2328,0 7.7897,1.7341 10.6702,5.2028 2.8806,3.4687 4.321,7.4369 4.321,11.9048 0,3.1746 -1.205,6.0846 -3.6155,8.7301 -2.4105,2.6455 -5.0851,3.9683 -8.0247,3.9683 -2.3514,0 -4.2623,-0.735 -5.7319,-2.1751 -1.4696,-1.4699 -2.2046,-3.351 -2.2046,-5.6732 0,-2.0869 0.7055,-3.8801 2.1164,-5.4087 1.4109,-1.4992 3.4096,-2.2633 5.9965,-2.2633 0.9405,0 1.705,0 2.2927,0 0,-4.8206 -1.94,-7.231 -5.8201,-7.231 -3.4096,0 -6.0846,1.6754 -8.0247,5.0264 -1.94,3.351 -2.91,6.9078 -2.91,10.6702 0,7.2897 1.3523,15.638 4.0564,25.0441 1.1759,3.9978 3.9978,12.1106 8.4656,24.3386 2.9396,7.9952 6.4079,16.0494 10.4057,24.1623 2.8219,5.6437 5.6437,11.2875 8.4656,16.9312 -11.1698,-3.8801 -23.0454,-7.1133 -35.6261,-9.7002 -10.9348,-2.2341 -19.6944,-3.3509 -26.2787,-3.3509 -7.6424,0 -17.1076,1.1168 -28.3951,3.3509 -11.2874,2.2341 -23.104,5.4674 -35.4497,9.7002 3.5273,-6.937 6.3492,-12.5807 8.4656,-16.9312 3.9978,-7.9952 7.4661,-16.0494 10.4057,-24.1623 5.6437,-15.5203 9.0533,-25.5732 10.2292,-30.1587 1.646,-6.4669 2.4692,-12.6984 2.4692,-18.6949 0,-3.645 -0.8819,-7.1133 -2.6455,-10.4056 -2.1164,-3.8801 -4.9383,-5.8201 -8.4656,-5.8201 -1.646,0 -3.0865,0.5586 -4.321,1.6754 -1.2346,1.1169 -1.8519,2.4397 -1.8519,3.9683 0,0.3527 0.1177,0.8818 0.3528,1.5873 0.4704,0 0.9113,0 1.3227,0 0.4114,0 0.7937,0 1.1464,0 2.5868,0 4.556,0.735 5.9083,2.1751 1.3522,1.4699 2.0282,3.2923 2.0282,5.4969 0,2.2045 -0.7641,4.0564 -2.2928,5.585 -1.5286,1.4991 -3.4096,2.2633 -5.6437,2.2633 -3.0569,0 -5.7614,-1.2933 -8.1129,-3.8801 -2.3514,-2.5868 -3.5273,-5.526 -3.5273,-8.8183 0,-4.5856 1.4109,-8.5833 4.2328,-11.993 2.8219,-3.4096 6.4079,-5.1146 10.7584,-5.1146 5.526,0 9.8178,2.6455 12.8747,7.9365 2.5869,4.4678 3.8801,9.7002 3.8801,15.6966 0,12.3457 -4.1151,29.3356 -12.3457,50.9701 -4.9382,11.9929 -8.0542,19.5767 -9.3474,22.7513 7.5251,-1.646 13.1688,-2.8219 16.9312,-3.5274 11.8753,-2.4691 18.7831,-5.1441 20.7231,-8.0246 1.9401,-2.8806 3.5569,-8.348 4.8501,-16.4022 1.2933,-8.0542 1.94,-14.5502 1.94,-19.4885l0 -37.7425c0,-7.1724 -1.0582,-13.2862 -3.1746,-18.3422 -2.1164,-5.0559 -5.1146,-9.0533 -8.9947,-11.9929l0 -4.2328c4.7033,-4.7032 7.9365,-10.1116 9.7002,-16.2258 2.8219,-9.8765 4.2328,-25.9259 4.2328,-48.1481l2.2928 0z"/>
 </g>
</svg>